<svg width="25" height="22" viewBox="0 0 25 22" fill="none" xmlns="http://www.w3.org/2000/svg">
<path d="M11.0353 21.5654L0.441437 12.0049C0.280924 11.8601 0.166959 11.7031 0.0995431 11.5341C0.0321274 11.3651 -0.00104501 11.1841 2.50805e-05 10.9909C2.50805e-05 10.7978 0.0337332 10.6167 0.101149 10.4477C0.168565 10.2787 0.281994 10.1218 0.441437 9.97692L11.0353 0.416408C11.3296 0.150838 11.6977 0.0122592 12.1397 0.000670719C12.5816 -0.0109178 12.9626 0.127661 13.2825 0.416408C13.6035 0.681978 13.771 1.01418 13.7849 1.41302C13.7988 1.81186 13.6447 2.15565 13.3226 2.4444L5.45748 9.54236H23.3949C23.8496 9.54236 24.2311 9.68142 24.5393 9.95954C24.8475 10.2377 25.0011 10.5815 25 10.9909C25 11.4013 24.8464 11.7456 24.5393 12.0237C24.2322 12.3019 23.8507 12.4404 23.3949 12.4395H5.45748L13.3226 19.5374C13.6169 19.803 13.771 20.141 13.7849 20.5514C13.7988 20.9619 13.6447 21.2999 13.3226 21.5654C13.0284 21.8551 12.6538 22 12.199 22C11.7443 22 11.3564 21.8551 11.0353 21.5654Z" fill="black"/>
</svg>
