<svg width="68" height="68" viewBox="0 0 68 68" fill="none" xmlns="http://www.w3.org/2000/svg">
<rect width="68" height="68" rx="34" fill="#DE6262"/>
<path d="M33.5 33.5C30.9563 33.5 28.7786 32.5943 26.9672 30.7828C25.1557 28.9714 24.25 26.7937 24.25 24.25C24.25 21.7062 25.1557 19.5286 26.9672 17.7172C28.7786 15.9057 30.9563 15 33.5 15C36.0438 15 38.2214 15.9057 40.0328 17.7172C41.8443 19.5286 42.75 21.7062 42.75 24.25C42.75 26.7937 41.8443 28.9714 40.0328 30.7828C38.2214 32.5943 36.0438 33.5 33.5 33.5ZM19.625 52C18.3531 52 17.2639 51.5467 16.3574 50.6402C15.4509 49.7337 14.9985 48.6453 15 47.375V45.525C15 44.2146 15.3376 43.0098 16.0129 41.9106C16.6881 40.8114 17.5838 39.9735 18.7 39.3969C21.0896 38.2021 23.5177 37.3056 25.9844 36.7074C28.451 36.1093 30.9563 35.811 33.5 35.8125C36.0438 35.8125 38.549 36.1116 41.0156 36.7097C43.4823 37.3079 45.9104 38.2036 48.3 39.3969C49.4177 39.975 50.3142 40.8137 50.9894 41.9129C51.6647 43.0121 52.0015 44.2161 52 45.525V47.375C52 48.6469 51.5467 49.7361 50.6402 50.6426C49.7337 51.5491 48.6453 52.0015 47.375 52H19.625Z" fill="white"/>
</svg>
