<svg width="30" height="31" viewBox="0 0 30 31" fill="none" xmlns="http://www.w3.org/2000/svg">
<path d="M17.886 31H12.114C11.7292 31 11.3958 30.8708 11.1136 30.6125C10.8314 30.3542 10.6646 30.0312 10.6133 29.6437L10.1516 26.04C9.8181 25.9108 9.50359 25.7558 9.20807 25.575C8.91255 25.3942 8.62421 25.2004 8.34305 24.9937L4.99534 26.3887C4.63619 26.5179 4.27705 26.5308 3.91791 26.4275C3.55877 26.3242 3.27659 26.1046 3.07136 25.7687L0.223881 20.77C0.0186567 20.4342 -0.0454757 20.0725 0.0314832 19.685C0.108442 19.2975 0.30084 18.9875 0.608675 18.755L3.49464 16.5462C3.46898 16.3654 3.45616 16.1908 3.45616 16.0223V14.9776C3.45616 14.8092 3.46898 14.6346 3.49464 14.4537L0.608675 12.245C0.30084 12.0125 0.108442 11.7025 0.0314832 11.315C-0.0454757 10.9275 0.0186567 10.5658 0.223881 10.23L3.07136 5.23125C3.25093 4.86958 3.52645 4.64328 3.8979 4.55235C4.26936 4.46142 4.63517 4.48105 4.99534 4.61125L8.34305 6.00625C8.62523 5.79958 8.92024 5.60583 9.22808 5.425C9.53591 5.24417 9.84375 5.08917 10.1516 4.96L10.6133 1.35625C10.6646 0.96875 10.8314 0.645833 11.1136 0.3875C11.3958 0.129167 11.7292 0 12.114 0H17.886C18.2708 0 18.6042 0.129167 18.8864 0.3875C19.1686 0.645833 19.3354 0.96875 19.3867 1.35625L19.8484 4.96C20.1819 5.08917 20.4964 5.24417 20.7919 5.425C21.0875 5.60583 21.3758 5.79958 21.6569 6.00625L25.0047 4.61125C25.3638 4.48208 25.7229 4.46917 26.0821 4.5725C26.4412 4.67583 26.7234 4.89542 26.9286 5.23125L29.7761 10.23C29.9813 10.5658 30.0455 10.9275 29.9685 11.315C29.8916 11.7025 29.6992 12.0125 29.3913 12.245L26.5054 14.4537C26.531 14.6346 26.5438 14.8092 26.5438 14.9776V16.0223C26.5438 16.1908 26.5182 16.3654 26.4669 16.5462L29.3528 18.755C29.6607 18.9875 29.8531 19.2975 29.93 19.685C30.007 20.0725 29.9429 20.4342 29.7376 20.77L26.8902 25.73C26.6849 26.0658 26.3961 26.2921 26.0236 26.4089C25.6511 26.5257 25.2858 26.5189 24.9277 26.3887L21.6569 24.9937C21.3748 25.2004 21.0798 25.3942 20.7719 25.575C20.4641 25.7558 20.1562 25.9108 19.8484 26.04L19.3867 29.6437C19.3354 30.0312 19.1686 30.3542 18.8864 30.6125C18.6042 30.8708 18.2708 31 17.886 31ZM15.077 20.925C16.5648 20.925 17.8347 20.3954 18.8864 19.3363C19.9382 18.2771 20.4641 16.9983 20.4641 15.5C20.4641 14.0017 19.9382 12.7229 18.8864 11.6637C17.8347 10.6046 16.5648 10.075 15.077 10.075C13.5634 10.075 12.2869 10.6046 11.2475 11.6637C10.208 12.7229 9.68881 14.0017 9.68983 15.5C9.68983 16.9983 10.209 18.2771 11.2475 19.3363C12.2859 20.3954 13.5624 20.925 15.077 20.925Z" fill="black"/>
</svg>
